<svg width="512" height="512" viewBox="0 0 512 512" fill="none" xmlns="http://www.w3.org/2000/svg">
  <defs>
    <linearGradient id="bg" x1="64" y1="56" x2="436" y2="456" gradientUnits="userSpaceOnUse">
      <stop stop-color="#12233E"/>
      <stop offset="1" stop-color="#091527"/>
    </linearGradient>
    <linearGradient id="glow" x1="128" y1="96" x2="388" y2="416" gradientUnits="userSpaceOnUse">
      <stop stop-color="#76A8FF"/>
      <stop offset="0.55" stop-color="#86F0D2"/>
      <stop offset="1" stop-color="#EAF6FF"/>
    </linearGradient>
    <filter id="shadow" x="73" y="66" width="366" height="380" filterUnits="userSpaceOnUse" color-interpolation-filters="sRGB">
      <feFlood flood-opacity="0" result="BackgroundImageFix"/>
      <feGaussianBlur in="BackgroundImageFix" stdDeviation="18"/>
      <feComposite in2="SourceAlpha" operator="in" result="effect1_backgroundBlur_1_12"/>
      <feBlend mode="normal" in="SourceGraphic" in2="effect1_backgroundBlur_1_12" result="shape"/>
      <feGaussianBlur stdDeviation="8" result="effect2_foregroundBlur_1_12"/>
    </filter>
  </defs>
  <rect width="512" height="512" rx="120" fill="url(#bg)"/>
  <rect x="20" y="20" width="472" height="472" rx="100" stroke="rgba(255,255,255,0.12)" stroke-width="2"/>
  <circle cx="132" cy="390" r="78" fill="#4ADE8026"/>
  <circle cx="384" cy="118" r="86" fill="#5B8CFF1F"/>
  <g filter="url(#shadow)">
    <path d="M321 110C279 110 244 141 244 180C244 211 267 233 310 254C346 272 362 286 362 316C362 347 335 372 299 372C265 372 238 350 229 319" stroke="url(#glow)" stroke-width="28" stroke-linecap="round"/>
    <path d="M192 402C234 402 269 371 269 332C269 301 246 279 203 258C167 240 151 226 151 196C151 165 178 140 214 140C248 140 275 162 284 193" stroke="url(#glow)" stroke-width="28" stroke-linecap="round"/>
    <path d="M279 84L233 428" stroke="#EEF7FF" stroke-opacity="0.9" stroke-width="14" stroke-linecap="round"/>
  </g>
</svg>
